<mxfile host="app.diagrams.net" modified="2023-10-08T14:42:32.360Z" agent="Mozilla/5.0 (Windows NT 10.0; Win64; x64) AppleWebKit/537.36 (KHTML, like Gecko) Chrome/117.0.0.0 Safari/537.36" version="22.0.4" etag="0weah-O7TPAYrcpU00gP" type="github">
  <diagram name="Page-1" id="0J7rSQITBn4L8p3QcUzO">
    <mxGraphModel>
      <root>
        <mxCell id="0" />
        <mxCell id="1" parent="0" />
      </root>
    </mxGraphModel>
  </diagram>
</mxfile>
